<svg width="185" height="50" viewBox="0 0 185 50" fill="none" xmlns="http://www.w3.org/2000/svg">
<g clip-path="url(#clip0_1_69)">
<path d="M20.9729 45.3396L30.3125 29.1666L37.6708 41.9104C34.1283 44.4673 29.8689 45.8402 25.5 45.8333C23.9458 45.8333 22.4312 45.6625 20.9729 45.3396ZM16.9375 44C14.2608 42.7898 11.8695 41.0288 9.91949 38.8318C7.96951 36.6348 6.50475 34.0514 5.62083 31.25H24.2979L16.9375 43.9979V44ZM4.77083 27.0833C4.4727 24.1609 4.79821 21.2085 5.72585 18.4213C6.65349 15.6341 8.16214 13.0754 10.1521 10.9146L19.4833 27.0833H4.77083ZM13.3312 8.08957C16.8732 5.53307 21.1318 4.16017 25.5 4.16665C27.0542 4.16665 28.5687 4.33748 30.0271 4.6604L20.6875 20.8333L13.3312 8.08957ZM34.0625 5.99998C36.7392 7.21016 39.1305 8.9712 41.0805 11.1682C43.0305 13.3651 44.4952 15.9486 45.3792 18.75H26.7021L34.0625 6.00207V5.99998ZM46.2292 22.9166C46.5273 25.839 46.2018 28.7914 45.2741 31.5787C44.3465 34.3659 42.8379 36.9245 40.8479 39.0854L31.5167 22.9166H46.2333H46.2292Z" fill="white" fill-opacity="0.8"/>
</g>
<path d="M67.6953 33.5V20.7734H72.125V33.5H67.6953ZM69.8984 19.3906C68.6797 19.3906 67.6953 18.4766 67.6953 17.3516C67.6953 16.2266 68.6797 15.3125 69.8984 15.3125C71.1172 15.3125 72.1016 16.2266 72.1016 17.3516C72.1016 18.4766 71.1172 19.3906 69.8984 19.3906ZM74.4922 33.5V20.7734H78.6875V23.1641H78.8281C79.3438 21.5938 80.7031 20.6094 82.4609 20.6094C84.2422 20.6094 85.6484 21.6172 85.9297 23.1641H86.0703C86.5156 21.6172 88.0156 20.6094 89.9141 20.6094C92.3281 20.6094 94.0156 22.2969 94.0156 24.9219V33.5H89.5859V26.0234C89.5859 24.8516 88.9297 24.1719 87.9688 24.1719C86.9609 24.1719 86.375 24.8984 86.375 26.0234V33.5H82.1328V26C82.1328 24.875 81.4766 24.1719 80.5156 24.1719C79.5312 24.1719 78.9219 24.8984 78.9219 26.0469V33.5H74.4922ZM95.7266 29.9844C95.7266 27.1719 97.8125 26.0938 100.414 25.9297L103.391 25.8125V24.7812C103.391 24.0781 102.805 23.6797 101.938 23.6797C101.023 23.6797 100.438 24.0781 100.32 24.875H96.2188C96.3828 22.5547 98.2578 20.6094 102.008 20.6094C105.547 20.6094 107.82 22.3438 107.82 24.8047V33.5H103.672V31.7188H103.578C102.828 33.1016 101.562 33.7109 99.875 33.7109C97.4375 33.7109 95.7266 32.5156 95.7266 29.9844ZM99.8984 29.7266C99.8984 30.4766 100.484 30.875 101.305 30.875C102.406 30.875 103.438 30.1719 103.414 28.9766V28.2969C102.969 28.3086 101.797 28.3555 101.211 28.4141C100.414 28.5078 99.8984 29.0469 99.8984 29.7266ZM116.141 38.5391C112.344 38.5391 110.141 36.8047 109.953 34.3672H114.242C114.383 35.1875 115.18 35.5391 116.258 35.5391C117.5 35.5391 118.391 35.0234 118.391 33.4766V31.2969H118.273C117.781 32.5625 116.445 33.3359 114.688 33.3359C111.945 33.3359 109.648 31.5078 109.648 27.125C109.648 22.5547 112.086 20.6094 114.641 20.6094C116.562 20.6094 117.734 21.7109 118.227 22.9766H118.344V20.7734H122.773V33.5C122.773 36.7344 120.125 38.5391 116.141 38.5391ZM116.281 30.1719C117.617 30.1719 118.414 29.0469 118.414 27.125C118.414 25.2031 117.617 24.0312 116.281 24.0312C114.969 24.0312 114.219 25.2031 114.219 27.125C114.219 29.0703 114.969 30.1719 116.281 30.1719ZM125.141 33.5V20.7734H129.57V33.5H125.141ZM127.344 19.3906C126.125 19.3906 125.141 18.4766 125.141 17.3516C125.141 16.2266 126.125 15.3125 127.344 15.3125C128.562 15.3125 129.547 16.2266 129.547 17.3516C129.547 18.4766 128.562 19.3906 127.344 19.3906ZM136.367 26.3047V33.5H131.938V20.7734H136.133V23.1641H136.273C136.836 21.5703 138.289 20.6094 140.164 20.6094C142.859 20.6094 144.617 22.5781 144.594 25.3906V33.5H140.164V26.3047C140.188 24.9922 139.484 24.2188 138.289 24.2188C137.117 24.2188 136.367 24.9922 136.367 26.3047ZM146.305 29.9844C146.305 27.1719 148.391 26.0938 150.992 25.9297L153.969 25.8125V24.7812C153.969 24.0781 153.383 23.6797 152.516 23.6797C151.602 23.6797 151.016 24.0781 150.898 24.875H146.797C146.961 22.5547 148.836 20.6094 152.586 20.6094C156.125 20.6094 158.398 22.3438 158.398 24.8047V33.5H154.25V31.7188H154.156C153.406 33.1016 152.141 33.7109 150.453 33.7109C148.016 33.7109 146.305 32.5156 146.305 29.9844ZM150.477 29.7266C150.477 30.4766 151.062 30.875 151.883 30.875C152.984 30.875 154.016 30.1719 153.992 28.9766V28.2969C153.547 28.3086 152.375 28.3555 151.789 28.4141C150.992 28.5078 150.477 29.0469 150.477 29.7266ZM160.648 33.5V20.7734H164.938V23.1641H165.078C165.547 21.4062 166.602 20.6094 167.984 20.6094C168.383 20.6094 168.781 20.6562 169.133 20.75V24.5703C168.688 24.4062 167.938 24.3359 167.469 24.3359C166.086 24.3359 165.078 25.3203 165.078 26.7969V33.5H160.648ZM173.586 38.2812C172.742 38.2812 171.992 38.2578 171.406 38.2109V34.9062C172.016 34.9531 172.578 34.9531 173.07 34.9531C173.703 34.9531 174.148 34.8828 174.406 34.2734L174.5 34.0391L170.023 20.7734H174.641L176.773 29.6562H176.914L179.094 20.7734H183.734L179.047 34.6016C178.344 36.7109 176.867 38.2812 173.586 38.2812Z" fill="white" fill-opacity="0.8"/>
<defs>
<clipPath id="clip0_1_69">
<rect width="50" height="50" fill="white" transform="translate(0.5)"/>
</clipPath>
</defs>
</svg>
