<svg width="184" height="50" viewBox="0 0 184 50" fill="none" xmlns="http://www.w3.org/2000/svg">
<g clip-path="url(#clip0_1_31)">
<mask id="mask0_1_31" style="mask-type:alpha" maskUnits="userSpaceOnUse" x="4" y="4" width="42" height="42">
<path d="M20.4729 45.3396L29.8125 29.1667L37.1708 41.9104C33.6283 44.4673 29.3689 45.8403 25 45.8333C23.4458 45.8333 21.9312 45.6625 20.4729 45.3396ZM16.4375 44C13.7608 42.7898 11.3695 41.0288 9.41949 38.8318C7.46951 36.6349 6.00475 34.0514 5.12083 31.25H23.7979L16.4375 43.9979V44ZM4.27083 27.0833C3.9727 24.161 4.29821 21.2086 5.22585 18.4213C6.15349 15.6341 7.66214 13.0755 9.65208 10.9146L18.9833 27.0833H4.27083ZM12.8312 8.0896C16.3732 5.5331 20.6318 4.1602 25 4.16668C26.5542 4.16668 28.0687 4.33751 29.5271 4.66043L20.1875 20.8333L12.8312 8.0896ZM33.5625 6.00001C36.2392 7.21019 38.6305 8.97123 40.5805 11.1682C42.5305 13.3651 43.9952 15.9486 44.8792 18.75H26.2021L33.5625 6.0021V6.00001ZM45.7292 22.9167C46.0273 25.8391 45.7018 28.7915 44.7741 31.5787C43.8465 34.3659 42.3379 36.9246 40.3479 39.0854L31.0167 22.9167H45.7333H45.7292Z" fill="black"/>
</mask>
<g mask="url(#mask0_1_31)">
<rect x="1" y="2" width="52" height="50" fill="url(#paint0_linear_1_31)"/>
</g>
</g>
<path d="M67.1953 33.5V20.7734H71.625V33.5H67.1953ZM69.3984 19.3906C68.1797 19.3906 67.1953 18.4766 67.1953 17.3516C67.1953 16.2266 68.1797 15.3125 69.3984 15.3125C70.6172 15.3125 71.6016 16.2266 71.6016 17.3516C71.6016 18.4766 70.6172 19.3906 69.3984 19.3906ZM73.9922 33.5V20.7734H78.1875V23.1641H78.3281C78.8438 21.5938 80.2031 20.6094 81.9609 20.6094C83.7422 20.6094 85.1484 21.6172 85.4297 23.1641H85.5703C86.0156 21.6172 87.5156 20.6094 89.4141 20.6094C91.8281 20.6094 93.5156 22.2969 93.5156 24.9219V33.5H89.0859V26.0234C89.0859 24.8516 88.4297 24.1719 87.4688 24.1719C86.4609 24.1719 85.875 24.8984 85.875 26.0234V33.5H81.6328V26C81.6328 24.875 80.9766 24.1719 80.0156 24.1719C79.0312 24.1719 78.4219 24.8984 78.4219 26.0469V33.5H73.9922ZM95.2266 29.9844C95.2266 27.1719 97.3125 26.0938 99.9141 25.9297L102.891 25.8125V24.7812C102.891 24.0781 102.305 23.6797 101.438 23.6797C100.523 23.6797 99.9375 24.0781 99.8203 24.875H95.7188C95.8828 22.5547 97.7578 20.6094 101.508 20.6094C105.047 20.6094 107.32 22.3438 107.32 24.8047V33.5H103.172V31.7188H103.078C102.328 33.1016 101.062 33.7109 99.375 33.7109C96.9375 33.7109 95.2266 32.5156 95.2266 29.9844ZM99.3984 29.7266C99.3984 30.4766 99.9844 30.875 100.805 30.875C101.906 30.875 102.938 30.1719 102.914 28.9766V28.2969C102.469 28.3086 101.297 28.3555 100.711 28.4141C99.9141 28.5078 99.3984 29.0469 99.3984 29.7266ZM115.641 38.5391C111.844 38.5391 109.641 36.8047 109.453 34.3672H113.742C113.883 35.1875 114.68 35.5391 115.758 35.5391C117 35.5391 117.891 35.0234 117.891 33.4766V31.2969H117.773C117.281 32.5625 115.945 33.3359 114.188 33.3359C111.445 33.3359 109.148 31.5078 109.148 27.125C109.148 22.5547 111.586 20.6094 114.141 20.6094C116.062 20.6094 117.234 21.7109 117.727 22.9766H117.844V20.7734H122.273V33.5C122.273 36.7344 119.625 38.5391 115.641 38.5391ZM115.781 30.1719C117.117 30.1719 117.914 29.0469 117.914 27.125C117.914 25.2031 117.117 24.0312 115.781 24.0312C114.469 24.0312 113.719 25.2031 113.719 27.125C113.719 29.0703 114.469 30.1719 115.781 30.1719ZM124.641 33.5V20.7734H129.07V33.5H124.641ZM126.844 19.3906C125.625 19.3906 124.641 18.4766 124.641 17.3516C124.641 16.2266 125.625 15.3125 126.844 15.3125C128.062 15.3125 129.047 16.2266 129.047 17.3516C129.047 18.4766 128.062 19.3906 126.844 19.3906ZM135.867 26.3047V33.5H131.438V20.7734H135.633V23.1641H135.773C136.336 21.5703 137.789 20.6094 139.664 20.6094C142.359 20.6094 144.117 22.5781 144.094 25.3906V33.5H139.664V26.3047C139.688 24.9922 138.984 24.2188 137.789 24.2188C136.617 24.2188 135.867 24.9922 135.867 26.3047ZM145.805 29.9844C145.805 27.1719 147.891 26.0938 150.492 25.9297L153.469 25.8125V24.7812C153.469 24.0781 152.883 23.6797 152.016 23.6797C151.102 23.6797 150.516 24.0781 150.398 24.875H146.297C146.461 22.5547 148.336 20.6094 152.086 20.6094C155.625 20.6094 157.898 22.3438 157.898 24.8047V33.5H153.75V31.7188H153.656C152.906 33.1016 151.641 33.7109 149.953 33.7109C147.516 33.7109 145.805 32.5156 145.805 29.9844ZM149.977 29.7266C149.977 30.4766 150.562 30.875 151.383 30.875C152.484 30.875 153.516 30.1719 153.492 28.9766V28.2969C153.047 28.3086 151.875 28.3555 151.289 28.4141C150.492 28.5078 149.977 29.0469 149.977 29.7266ZM160.148 33.5V20.7734H164.438V23.1641H164.578C165.047 21.4062 166.102 20.6094 167.484 20.6094C167.883 20.6094 168.281 20.6562 168.633 20.75V24.5703C168.188 24.4062 167.438 24.3359 166.969 24.3359C165.586 24.3359 164.578 25.3203 164.578 26.7969V33.5H160.148ZM173.086 38.2812C172.242 38.2812 171.492 38.2578 170.906 38.2109V34.9062C171.516 34.9531 172.078 34.9531 172.57 34.9531C173.203 34.9531 173.648 34.8828 173.906 34.2734L174 34.0391L169.523 20.7734H174.141L176.273 29.6562H176.414L178.594 20.7734H183.234L178.547 34.6016C177.844 36.7109 176.367 38.2812 173.086 38.2812Z" fill="#12562F"/>
<defs>
<linearGradient id="paint0_linear_1_31" x1="13" y1="8" x2="34" y2="43.5" gradientUnits="userSpaceOnUse">
<stop stop-color="#27AE60"/>
<stop offset="0.520833" stop-color="#56CCF2"/>
<stop offset="1" stop-color="#9B51E0"/>
</linearGradient>
<clipPath id="clip0_1_31">
<rect width="50" height="50" fill="white"/>
</clipPath>
</defs>
</svg>
